<?xml version="1.0" encoding="UTF-8" standalone="no" ?>
<!DOCTYPE svg PUBLIC "-//W3C//DTD SVG 1.1//EN" "http://www.w3.org/Graphics/SVG/1.1/DTD/svg11.dtd">
<svg xmlns="http://www.w3.org/2000/svg" xmlns:xlink="http://www.w3.org/1999/xlink" version="1.1" width="640" height="480" viewBox="0 0 640 480" xml:space="preserve">
<desc>Created with Fabric.js 3.6.6</desc>
<defs>
</defs>
<g transform="matrix(1.51 0 0 1.77 303.13 239.24)" id="Layer_2"  >
<path style="stroke: none; stroke-width: 1; stroke-dasharray: none; stroke-linecap: butt; stroke-dashoffset: 0; stroke-linejoin: miter; stroke-miterlimit: 4; fill: rgb(56,115,233); fill-rule: nonzero; opacity: 1;"  transform=" translate(-256.01, -256.01)" d="M 217 129.88 c -6.25 -6.25 -16.38 -6.25 -22.63 0 L 79.61 244.64 c -0.39 0.39 -0.76 0.8 -1.11 1.23 c -0.11 0.13 -0.2 0.27 -0.31 0.41 c -0.21 0.28 -0.42 0.55 -0.62 0.84 c -0.14 0.21 -0.26 0.43 -0.39 0.64 c -0.14 0.23 -0.28 0.46 -0.41 0.7 c -0.13 0.24 -0.24 0.48 -0.35 0.73 c -0.11 0.23 -0.22 0.45 -0.32 0.68 c -0.11 0.26 -0.19 0.52 -0.28 0.78 c -0.08 0.23 -0.17 0.46 -0.24 0.69 c -0.09 0.29 -0.15 0.58 -0.22 0.86 c -0.05 0.22 -0.11 0.43 -0.16 0.65 c -0.08 0.38 -0.13 0.76 -0.17 1.14 c -0.02 0.14 -0.04 0.27 -0.06 0.41 c -0.11 1.07 -0.11 2.15 0 3.22 c 0.01 0.06 0.02 0.12 0.03 0.18 c 0.05 0.46 0.12 0.92 0.21 1.37 c 0.03 0.13 0.07 0.26 0.1 0.39 c 0.09 0.38 0.18 0.76 0.29 1.13 c 0.04 0.13 0.09 0.26 0.14 0.4 c 0.12 0.36 0.25 0.73 0.4 1.09 c 0.05 0.11 0.1 0.21 0.15 0.32 c 0.17 0.37 0.34 0.74 0.53 1.1 c 0.04 0.07 0.09 0.14 0.13 0.21 c 0.21 0.38 0.44 0.76 0.68 1.13 c 0.02 0.03 0.04 0.06 0.06 0.09 c 0.55 0.81 1.18 1.58 1.89 2.29 l 114.81 114.81 c 3.12 3.12 7.22 4.69 11.31 4.69 s 8.19 -1.56 11.31 -4.69 c 6.25 -6.25 6.25 -16.38 0 -22.63 l -87.5 -87.5 h 291.62 c 8.84 0 16 -7.16 16 -16 s -7.16 -16 -16 -16 H 129.51 L 217 152.5 C 223.25 146.26 223.25 136.13 217 129.88 z" stroke-linecap="round" />
</g>
</svg>