<svg width="119" height="112" viewBox="0 0 119 112" fill="none" xmlns="http://www.w3.org/2000/svg">
<circle cx="62.5" cy="60.5" r="45.5" fill="#3873E9"/>
<path d="M53.402 76V73.4432L63.0043 62.9318C64.1312 61.7008 65.0592 60.6307 65.7884 59.7216C66.5175 58.803 67.0573 57.9413 67.4077 57.1364C67.7675 56.322 67.9474 55.4697 67.9474 54.5795C67.9474 53.5568 67.7012 52.6714 67.2088 51.9233C66.7259 51.1752 66.063 50.5975 65.2202 50.1903C64.3774 49.7831 63.4304 49.5795 62.3793 49.5795C61.2618 49.5795 60.2865 49.8116 59.4531 50.2756C58.6293 50.7301 57.9901 51.3693 57.5355 52.1932C57.0904 53.017 56.8679 53.983 56.8679 55.0909H53.5156C53.5156 53.3864 53.9086 51.8902 54.6946 50.6023C55.4806 49.3144 56.5507 48.3106 57.9048 47.5909C59.2685 46.8712 60.7978 46.5114 62.4929 46.5114C64.1974 46.5114 65.7079 46.8712 67.0241 47.5909C68.3404 48.3106 69.3726 49.2812 70.1207 50.5028C70.8688 51.7244 71.2429 53.0833 71.2429 54.5795C71.2429 55.6496 71.0488 56.696 70.6605 57.7188C70.2817 58.732 69.6188 59.8636 68.6719 61.1136C67.7344 62.3542 66.4323 63.8693 64.7656 65.6591L58.2315 72.6477V72.875H71.7543V76H53.402Z" fill="white"/>
<ellipse cx="109" cy="102" rx="3.5" ry="10" fill="#3873E9"/>
<ellipse cx="109" cy="102" rx="3.5" ry="10" transform="rotate(-90 109 102)" fill="#3873E9"/>
<ellipse cx="6.00002" cy="36" rx="2.1" ry="6" fill="#3873E9"/>
<ellipse cx="6" cy="36" rx="2.1" ry="6" transform="rotate(-90 6 36)" fill="#3873E9"/>
<ellipse cx="17" cy="15" rx="5.25" ry="15" fill="#3873E9"/>
<ellipse cx="17" cy="15" rx="5.25" ry="15" transform="rotate(-90 17 15)" fill="#3873E9"/>
</svg>
