<svg width="91" height="91" viewBox="0 0 91 91" fill="none" xmlns="http://www.w3.org/2000/svg">
<circle cx="45.5" cy="45.5" r="44" stroke="#3873E9" stroke-width="3"/>
<path d="M46.1065 61.3977C44.2315 61.3977 42.5601 61.0758 41.0923 60.4318C39.634 59.7879 38.474 58.893 37.6122 57.7472C36.7599 56.5919 36.2959 55.2519 36.2202 53.7273H39.7997C39.8755 54.6648 40.1974 55.4744 40.7656 56.1562C41.3338 56.8286 42.0772 57.3494 42.9957 57.7188C43.9143 58.0881 44.9323 58.2727 46.0497 58.2727C47.2997 58.2727 48.4077 58.0549 49.3736 57.6193C50.3395 57.1837 51.0971 56.5777 51.6463 55.8011C52.1955 55.0246 52.4702 54.125 52.4702 53.1023C52.4702 52.0322 52.205 51.09 51.6747 50.2756C51.1444 49.4517 50.3679 48.8078 49.3452 48.3438C48.3224 47.8797 47.0724 47.6477 45.5952 47.6477H43.2656V44.5227H45.5952C46.7505 44.5227 47.7637 44.3144 48.6349 43.8977C49.5156 43.4811 50.2022 42.8939 50.6946 42.1364C51.1965 41.3788 51.4474 40.4886 51.4474 39.4659C51.4474 38.4811 51.2296 37.6241 50.794 36.8949C50.3584 36.1657 49.7429 35.5975 48.9474 35.1903C48.1615 34.7831 47.2334 34.5795 46.1634 34.5795C45.1596 34.5795 44.2126 34.7642 43.3224 35.1335C42.4418 35.4934 41.7221 36.0189 41.1634 36.7102C40.6046 37.392 40.3016 38.2159 40.2543 39.1818H36.8452C36.902 37.6572 37.3613 36.322 38.223 35.1761C39.0848 34.0208 40.2116 33.1212 41.6037 32.4773C43.0052 31.8333 44.544 31.5114 46.2202 31.5114C48.0194 31.5114 49.563 31.8759 50.8509 32.6051C52.1387 33.3248 53.1283 34.2765 53.8196 35.4602C54.5109 36.6439 54.8565 37.9223 54.8565 39.2955C54.8565 40.9337 54.4257 42.3305 53.5639 43.4858C52.7116 44.6411 51.5516 45.4413 50.0838 45.8864V46.1136C51.9209 46.4167 53.3556 47.1979 54.3878 48.4574C55.42 49.7074 55.9361 51.2557 55.9361 53.1023C55.9361 54.6837 55.5052 56.1042 54.6435 57.3636C53.7912 58.6136 52.6264 59.5985 51.1491 60.3182C49.6719 61.0379 47.991 61.3977 46.1065 61.3977Z" fill="#3873E9"/>
</svg>
