<svg width="51" height="52" viewBox="0 0 51 52" fill="none" xmlns="http://www.w3.org/2000/svg">
<ellipse cx="36.5246" cy="14.4918" rx="2.98361" ry="8.52459" fill="#3873E9"/>
<ellipse cx="36.5246" cy="14.4918" rx="2.98361" ry="8.52459" transform="rotate(-90 36.5246 14.4918)" fill="#3873E9"/>
<ellipse cx="45.0492" cy="5.11475" rx="1.79016" ry="5.11475" fill="#3873E9"/>
<ellipse cx="45.0492" cy="5.11474" rx="1.79016" ry="5.11475" transform="rotate(-90 45.0492 5.11474)" fill="#3873E9"/>
<mask id="path-5-inside-1_88_197" fill="white">
<path fill-rule="evenodd" clip-rule="evenodd" d="M13.1115 3.53551C11.1588 1.58289 7.99302 1.58289 6.0404 3.53551L2.45429 7.12162C2.33603 7.23988 2.22493 7.3626 2.12099 7.48922C2.00478 7.58255 1.89371 7.68208 1.78791 7.78787C-2.51325 12.089 3.54274 25.1186 15.3143 36.8902C27.0859 48.6618 40.1155 54.7177 44.4166 50.4166C44.5222 50.311 44.6216 50.2001 44.7147 50.0842C44.8416 49.9801 44.9645 49.8688 45.083 49.7503L48.6691 46.1642C50.6217 44.2116 50.6217 41.0458 48.6691 39.0932L40.9841 31.4081C39.0315 29.4555 35.8656 29.4555 33.913 31.4081L30.3269 34.9942C29.6528 35.6684 29.2114 36.4871 29.0027 37.3506C26.6742 36.1017 23.83 33.9289 21.0528 31.1516C18.2756 28.3745 16.1029 25.5305 14.854 23.2019C15.7175 22.9933 16.5362 22.5519 17.2104 21.8777L20.7965 18.2916C22.7491 16.339 22.7491 13.1732 20.7965 11.2205L13.1115 3.53551Z"/>
</mask>
<path fill-rule="evenodd" clip-rule="evenodd" d="M13.1115 3.53551C11.1588 1.58289 7.99302 1.58289 6.0404 3.53551L2.45429 7.12162C2.33603 7.23988 2.22493 7.3626 2.12099 7.48922C2.00478 7.58255 1.89371 7.68208 1.78791 7.78787C-2.51325 12.089 3.54274 25.1186 15.3143 36.8902C27.0859 48.6618 40.1155 54.7177 44.4166 50.4166C44.5222 50.311 44.6216 50.2001 44.7147 50.0842C44.8416 49.9801 44.9645 49.8688 45.083 49.7503L48.6691 46.1642C50.6217 44.2116 50.6217 41.0458 48.6691 39.0932L40.9841 31.4081C39.0315 29.4555 35.8656 29.4555 33.913 31.4081L30.3269 34.9942C29.6528 35.6684 29.2114 36.4871 29.0027 37.3506C26.6742 36.1017 23.83 33.9289 21.0528 31.1516C18.2756 28.3745 16.1029 25.5305 14.854 23.2019C15.7175 22.9933 16.5362 22.5519 17.2104 21.8777L20.7965 18.2916C22.7491 16.339 22.7491 13.1732 20.7965 11.2205L13.1115 3.53551Z" fill="white"/>
<path d="M6.0404 3.53551L4.62619 2.1213V2.1213L6.0404 3.53551ZM13.1115 3.53551L14.5257 2.1213V2.1213L13.1115 3.53551ZM2.45429 7.12162L3.8685 8.53583L2.45429 7.12162ZM2.12099 7.48922L3.37337 9.04856L3.5352 8.91859L3.66689 8.75815L2.12099 7.48922ZM1.78791 7.78787L0.373699 6.37366H0.373699L1.78791 7.78787ZM15.3143 36.8902L13.9001 38.3044L15.3143 36.8902ZM44.4166 50.4166L45.8308 51.8308L44.4166 50.4166ZM44.7147 50.0842L43.4461 48.5381L43.2856 48.6697L43.1556 48.8315L44.7147 50.0842ZM45.083 49.7503L43.6688 48.3361L45.083 49.7503ZM48.6691 46.1642L50.0833 47.5784L48.6691 46.1642ZM33.913 31.4081L35.3272 32.8223L33.913 31.4081ZM30.3269 34.9942L28.9127 33.58H28.9127L30.3269 34.9942ZM29.0027 37.3506L28.0574 39.1131L30.3388 40.3367L30.9468 37.8204L29.0027 37.3506ZM14.854 23.2019L14.3842 21.2578L11.8678 21.8659L13.0915 24.1472L14.854 23.2019ZM20.7965 11.2205L19.3823 12.6348L20.7965 11.2205ZM7.45461 4.94972C8.62618 3.77815 10.5257 3.77815 11.6973 4.94973L14.5257 2.1213C11.792 -0.61237 7.35986 -0.612375 4.62619 2.1213L7.45461 4.94972ZM3.8685 8.53583L7.45461 4.94972L4.62619 2.1213L1.04007 5.70741L3.8685 8.53583ZM3.66689 8.75815C3.7294 8.682 3.79656 8.60778 3.8685 8.53583L1.04007 5.70741C0.875492 5.87199 0.720449 6.0432 0.575082 6.22029L3.66689 8.75815ZM3.20213 9.20209C3.25637 9.14785 3.31339 9.09674 3.37337 9.04856L0.868608 5.92988C0.696176 6.06837 0.531047 6.21631 0.373699 6.37366L3.20213 9.20209ZM16.7285 35.476C10.9639 29.7113 6.66325 23.6985 4.33751 18.6946C3.17101 16.1849 2.54902 14.0305 2.42617 12.3486C2.30277 10.659 2.69132 9.7129 3.20213 9.20209L0.373699 6.37366C-1.26607 8.01343 -1.73346 10.3089 -1.5632 12.64C-1.39239 14.9787 -0.571128 17.6238 0.71017 20.3806C3.28003 25.9097 7.89312 32.2974 13.9001 38.3044L16.7285 35.476ZM43.0024 49.0024C42.4916 49.5132 41.5455 49.9017 39.8559 49.7783C38.174 49.6555 36.0196 49.0335 33.5099 47.867C28.506 45.5412 22.4931 41.2406 16.7285 35.476L13.9001 38.3044C19.9071 44.3114 26.2948 48.9245 31.8239 51.4943C34.5806 52.7756 37.2258 53.5969 39.5645 53.7677C41.8956 53.938 44.1911 53.4706 45.8308 51.8308L43.0024 49.0024ZM43.1556 48.8315C43.1076 48.8913 43.0565 48.9482 43.0024 49.0024L45.8308 51.8308C45.9879 51.6738 46.1356 51.509 46.2738 51.3369L43.1556 48.8315ZM43.6688 48.3361C43.5967 48.4082 43.5224 48.4755 43.4461 48.5381L45.9834 51.6303C46.1608 51.4847 46.3323 51.3294 46.4972 51.1645L43.6688 48.3361ZM47.2549 44.75L43.6688 48.3361L46.4972 51.1645L50.0833 47.5784L47.2549 44.75ZM47.2549 40.5074C48.4265 41.6789 48.4265 43.5784 47.2549 44.75L50.0833 47.5784C52.817 44.8448 52.817 40.4126 50.0833 37.6789L47.2549 40.5074ZM39.5699 32.8223L47.2549 40.5074L50.0833 37.6789L42.3983 29.9939L39.5699 32.8223ZM35.3272 32.8223C36.4988 31.6508 38.3983 31.6508 39.5699 32.8223L42.3983 29.9939C39.6646 27.2603 35.2325 27.2602 32.4988 29.9939L35.3272 32.8223ZM31.7411 36.4085L35.3272 32.8223L32.4988 29.9939L28.9127 33.58L31.7411 36.4085ZM30.9468 37.8204C31.0715 37.3042 31.3344 36.8152 31.7411 36.4085L28.9127 33.58C27.9711 34.5216 27.3513 35.67 27.0587 36.8808L30.9468 37.8204ZM19.6386 32.5659C22.5117 35.439 25.5104 37.747 28.0574 39.1131L29.948 35.5881C27.8379 34.4564 25.1483 32.4188 22.467 29.7374L19.6386 32.5659ZM13.0915 24.1472C14.4576 26.6943 16.7655 29.6928 19.6386 32.5659L22.467 29.7374C19.7858 27.0562 17.7482 24.3666 16.6164 22.2566L13.0915 24.1472ZM15.7962 20.4635C15.3894 20.8702 14.9004 21.1331 14.3842 21.2578L15.3237 25.146C16.5346 24.8534 17.683 24.2335 18.6246 23.2919L15.7962 20.4635ZM19.3823 16.8774L15.7962 20.4635L18.6246 23.2919L22.2107 19.7058L19.3823 16.8774ZM19.3823 12.6348C20.5538 13.8063 20.5538 15.7058 19.3823 16.8774L22.2107 19.7058C24.9444 16.9721 24.9444 12.54 22.2107 9.80632L19.3823 12.6348ZM11.6973 4.94973L19.3823 12.6348L22.2107 9.80632L14.5257 2.1213L11.6973 4.94973Z" fill="#3873E9" mask="url(#path-5-inside-1_88_197)"/>
</svg>
