<svg width="425" height="1024" viewBox="0 0 425 1024" fill="none" xmlns="http://www.w3.org/2000/svg">
<rect width="425" height="1024" fill="white"/>
<path fill-rule="evenodd" clip-rule="evenodd" d="M183.499 1024H0V828.943C23.5417 808.426 54.3198 796 88 796C162.006 796 222 855.994 222 930C222 966.622 207.309 999.812 183.499 1024Z" fill="#3873E9" fill-opacity="0.25"/>
<circle cx="103" cy="887" r="74" fill="white"/>
<circle cx="105" cy="880" r="43" fill="#3873E9" fill-opacity="0.25"/>
<ellipse cx="108" cy="863.5" rx="16" ry="15.5" fill="white"/>
<circle cx="126.5" cy="886.5" r="7.5" fill="white"/>
<path fill-rule="evenodd" clip-rule="evenodd" d="M279 975.808C279 972.987 273.844 970.587 266.65 969.7C265.799 962.324 263.367 957 260.5 957C257.633 957 255.201 962.324 254.349 969.7C247.156 970.587 242 972.987 242 975.808C242 978.64 247.192 981.047 254.426 981.926C255.34 988.976 257.715 994 260.5 994C263.285 994 265.659 988.976 266.574 981.926C273.807 981.047 279 978.64 279 975.808Z" fill="#3873E9" fill-opacity="0.25"/>
<path fill-rule="evenodd" clip-rule="evenodd" d="M298 998.658C298 997.21 295.352 995.977 291.658 995.522C291.221 991.734 289.972 989 288.5 989C287.028 989 285.779 991.734 285.342 995.522C281.648 995.977 279 997.21 279 998.658C279 1000.11 281.666 1001.35 285.381 1001.8C285.85 1005.42 287.07 1008 288.5 1008C289.93 1008 291.149 1005.42 291.619 1001.8C295.334 1001.35 298 1000.11 298 998.658Z" fill="#3873E9" fill-opacity="0.25"/>
<path fill-rule="evenodd" clip-rule="evenodd" d="M42 779.217C42 777.234 38.377 775.548 33.3218 774.924C32.7233 769.741 31.0145 766 28.9999 766C26.9853 766 25.2765 769.741 24.678 774.924C19.6229 775.548 16 777.234 16 779.217C16 781.206 19.6487 782.898 24.7319 783.516C25.3742 788.469 27.0427 792 28.9999 792C30.9571 792 32.6256 788.469 33.2679 783.516C38.3512 782.898 42 781.206 42 779.217Z" fill="#3873E9" fill-opacity="0.25"/>
</svg>
