<svg width="52" height="58" viewBox="0 0 52 58" fill="none" xmlns="http://www.w3.org/2000/svg">
<rect x="10.2295" y="0.852459" width="40.918" height="54.5574" rx="7.67213" fill="white" stroke="#3873E9" stroke-width="1.70492"/>
<rect x="6.81968" y="2.55742" width="40.918" height="54.5574" rx="7.67213" fill="white" stroke="#3873E9" stroke-width="1.70492"/>
<ellipse cx="25.5737" cy="33.2459" rx="2.98361" ry="8.52459" fill="#3873E9"/>
<ellipse cx="25.5737" cy="33.2459" rx="2.98361" ry="8.52459" transform="rotate(-90 25.5737 33.2459)" fill="#3873E9"/>
<ellipse cx="34.0984" cy="23.8688" rx="1.79016" ry="5.11475" fill="#3873E9"/>
<ellipse cx="34.0984" cy="23.8688" rx="1.79016" ry="5.11475" transform="rotate(-90 34.0984 23.8688)" fill="#3873E9"/>
<path fill-rule="evenodd" clip-rule="evenodd" d="M5.21192 12.7694C5.21192 12.2673 4.78093 11.8703 4.28412 11.9431C1.77761 12.3103 5.53428e-08 13.232 0 14.311C-7.18992e-08 15.7127 3.00018 16.849 6.70108 16.849C10.402 16.849 13.4022 15.7127 13.4022 14.311C13.4022 14.311 13.4022 14.311 13.4022 14.311H11.2957C11.2957 14.311 11.2957 14.311 11.2957 14.311C11.2957 14.311 11.2957 14.311 11.2957 14.311C11.1689 14.3749 11.0165 14.4427 10.8356 14.5112C9.86091 14.8804 8.39957 15.144 6.70108 15.144C5.00259 15.144 3.54126 14.8804 2.56657 14.5112C2.37217 14.4376 2.37217 14.1844 2.56657 14.1107C3.07174 13.9194 3.70765 13.7564 4.43954 13.6438C4.87584 13.5766 5.21192 13.2108 5.21192 12.7694ZM1.61779 13.9834C1.61641 13.9818 1.61646 13.9817 1.61779 13.9834V13.9834ZM1.61779 14.6386C1.61641 14.6402 1.61646 14.6402 1.61779 14.6386V14.6386ZM11.7844 14.6385C11.7857 14.6402 11.7858 14.6402 11.7844 14.6385V14.6385Z" fill="#3873E9"/>
<path fill-rule="evenodd" clip-rule="evenodd" d="M5.21192 22.9989C5.21192 22.4968 4.78093 22.0998 4.28412 22.1726C1.77761 22.5398 5.53428e-08 23.4615 0 24.5405C-7.18992e-08 25.9421 3.00018 27.0784 6.70108 27.0784C10.402 27.0784 13.4022 25.9421 13.4022 24.5405C13.4022 24.5405 13.4022 24.5404 13.4022 24.5404H11.2957C11.2957 24.5404 11.2957 24.5405 11.2957 24.5405C11.2957 24.5405 11.2957 24.5405 11.2957 24.5405C11.1689 24.6044 11.0165 24.6722 10.8356 24.7407C9.86091 25.1098 8.39957 25.3735 6.70108 25.3735C5.00259 25.3735 3.54126 25.1098 2.56657 24.7407C2.37217 24.6671 2.37217 24.4139 2.56657 24.3402C3.07174 24.1489 3.70765 23.9859 4.43954 23.8733C4.87584 23.8061 5.21192 23.4403 5.21192 22.9989ZM1.61779 24.2129C1.61641 24.2113 1.61646 24.2112 1.61779 24.2129V24.2129ZM1.61606 24.8701C1.61581 24.8705 1.61583 24.8705 1.61609 24.8702L1.61779 24.868C1.61697 24.869 1.6164 24.8697 1.61606 24.8701ZM11.7844 24.868C11.7857 24.8697 11.7858 24.8697 11.7844 24.868V24.868Z" fill="#3873E9"/>
<path fill-rule="evenodd" clip-rule="evenodd" d="M5.21192 33.2284C5.21192 32.7263 4.78093 32.3293 4.28412 32.4021C1.77761 32.7693 5.53428e-08 33.691 0 34.77C-7.18992e-08 36.1716 3.00018 37.3079 6.70108 37.3079C10.402 37.3079 13.4022 36.1716 13.4022 34.77C13.4022 34.7699 13.4022 34.7699 13.4022 34.7699H11.2957C11.2957 34.7699 11.2957 34.7699 11.2957 34.7699C11.2957 34.7699 11.2957 34.77 11.2957 34.77C11.1689 34.8339 11.0165 34.9017 10.8356 34.9702C9.86091 35.3393 8.39957 35.603 6.70108 35.603C5.00259 35.603 3.54126 35.3393 2.56657 34.9702C2.37217 34.8966 2.37217 34.6433 2.56657 34.5697C3.07174 34.3784 3.70765 34.2154 4.43954 34.1028C4.87584 34.0356 5.21192 33.6698 5.21192 33.2284ZM1.61779 34.4424C1.61641 34.4408 1.61646 34.4407 1.61779 34.4424V34.4424ZM1.61779 35.0975C1.61641 35.0992 1.61646 35.0992 1.61779 35.0975V35.0975ZM11.7844 35.0975C11.7857 35.0992 11.7858 35.0991 11.7844 35.0975V35.0975Z" fill="#3873E9"/>
<path fill-rule="evenodd" clip-rule="evenodd" d="M5.21192 44.3104C5.21192 43.8082 4.78093 43.4112 4.28412 43.484C1.77761 43.8513 5.53428e-08 44.773 0 45.8519C-7.18992e-08 47.2536 3.00018 48.3899 6.70108 48.3899C10.402 48.3899 13.4022 47.2536 13.4022 45.8519C13.4022 45.8519 13.4022 45.8519 13.4022 45.8519H11.2957C11.2957 45.8519 11.2957 45.8519 11.2957 45.8519C11.2957 45.8519 11.2957 45.8519 11.2957 45.8519C11.1689 45.9159 11.0165 45.9836 10.8356 46.0522C9.86091 46.4213 8.39957 46.685 6.70108 46.685C5.00259 46.685 3.54126 46.4213 2.56657 46.0522C2.37217 45.9785 2.37217 45.7253 2.56657 45.6517C3.07174 45.4604 3.70765 45.2974 4.43954 45.1847C4.87584 45.1176 5.21192 44.7518 5.21192 44.3104ZM1.61779 45.5243C1.61641 45.5227 1.61646 45.5227 1.61779 45.5243V45.5243ZM1.61779 46.1795C1.61641 46.1811 1.61646 46.1812 1.61779 46.1795V46.1795ZM11.7844 46.1795C11.7857 46.1812 11.7858 46.1811 11.7844 46.1795V46.1795Z" fill="#3873E9"/>
</svg>
