<svg width="38" height="60" viewBox="0 0 38 60" fill="none" xmlns="http://www.w3.org/2000/svg">
<path d="M13.7453 55.3369C15.625 57.6278 20.6533 60.8351 25.7285 55.3369" stroke="#3873E9" stroke-width="2" stroke-linecap="round"/>
<path d="M36.9902 19.7398C36.9902 25.3694 34.8735 29.5836 32.6853 33.0878C32.255 33.7769 31.8052 34.463 31.3666 35.1321C30.7223 36.1147 30.1022 37.0606 29.6034 37.9253C28.7495 39.4053 28.0768 40.9194 28.0768 42.4726C28.0768 42.7387 27.9575 43.0386 27.5556 43.383C27.1395 43.7397 26.4843 44.0814 25.6002 44.3727C23.8392 44.9529 21.4273 45.2502 18.9704 45.2394C16.5136 45.2287 14.1115 44.9105 12.3708 44.3251C11.4959 44.0309 10.8554 43.6913 10.4561 43.3442C10.0715 43.0099 9.97862 42.7361 9.98675 42.5083C10.0416 40.9725 9.37095 39.4836 8.51848 38.0403C8.02579 37.2062 7.4058 36.2859 6.75916 35.326C6.30841 34.6569 5.8447 33.9685 5.40214 33.2768C3.17791 29.8 1 25.5434 1 19.7398C1 8.12134 8.84994 1.16918 18.2709 1.00266C27.7211 0.835631 36.9902 8.52993 36.9902 19.7398Z" fill="white" stroke="#3873E9" stroke-width="2"/>
<path d="M11.102 51.2838C14.2359 52.8796 21.9364 55.1137 27.667 51.2838" stroke="#3873E9" stroke-width="2" stroke-linecap="round"/>
<path d="M11.102 47.4067C14.2359 49.0025 21.9364 51.2366 27.667 47.4067" stroke="#3873E9" stroke-width="2" stroke-linecap="round"/>
<ellipse cx="22.4999" cy="17.5" rx="2.625" ry="7.5" fill="#3873E9"/>
<ellipse cx="22.5" cy="17.625" rx="2.625" ry="7.5" transform="rotate(-90 22.5 17.625)" fill="#3873E9"/>
<ellipse cx="22.5" cy="17.625" rx="2.625" ry="7.5" transform="rotate(-90 22.5 17.625)" fill="#3873E9"/>
<ellipse cx="22" cy="34" rx="1.4" ry="4" fill="#3873E9"/>
<ellipse cx="22" cy="34" rx="1.4" ry="4" transform="rotate(-90 22 34)" fill="#3873E9"/>
<ellipse cx="13.5" cy="28.5" rx="1.925" ry="5.5" fill="#3873E9"/>
<ellipse cx="13.5" cy="28.5" rx="1.925" ry="5.5" transform="rotate(-90 13.5 28.5)" fill="#3873E9"/>
</svg>
