<svg width="91" height="91" viewBox="0 0 91 91" fill="none" xmlns="http://www.w3.org/2000/svg">
<circle cx="45.5" cy="45.5" r="44" stroke="#3873E9" stroke-width="3"/>
<path d="M37.402 61V58.4432L47.0043 47.9318C48.1312 46.7008 49.0592 45.6307 49.7884 44.7216C50.5175 43.803 51.0573 42.9413 51.4077 42.1364C51.7675 41.322 51.9474 40.4697 51.9474 39.5795C51.9474 38.5568 51.7012 37.6714 51.2088 36.9233C50.7259 36.1752 50.063 35.5975 49.2202 35.1903C48.3774 34.7831 47.4304 34.5795 46.3793 34.5795C45.2618 34.5795 44.2865 34.8116 43.4531 35.2756C42.6293 35.7301 41.9901 36.3693 41.5355 37.1932C41.0904 38.017 40.8679 38.983 40.8679 40.0909H37.5156C37.5156 38.3864 37.9086 36.8902 38.6946 35.6023C39.4806 34.3144 40.5507 33.3106 41.9048 32.5909C43.2685 31.8712 44.7978 31.5114 46.4929 31.5114C48.1974 31.5114 49.7079 31.8712 51.0241 32.5909C52.3404 33.3106 53.3726 34.2812 54.1207 35.5028C54.8688 36.7244 55.2429 38.0833 55.2429 39.5795C55.2429 40.6496 55.0488 41.696 54.6605 42.7188C54.2817 43.732 53.6188 44.8636 52.6719 46.1136C51.7344 47.3542 50.4323 48.8693 48.7656 50.6591L42.2315 57.6477V57.875H55.7543V61H37.402Z" fill="#3873E9"/>
</svg>
