<svg width="119" height="112" viewBox="0 0 119 112" fill="none" xmlns="http://www.w3.org/2000/svg">
<ellipse cx="109" cy="102" rx="3.5" ry="10" fill="#3873E9"/>
<ellipse cx="109" cy="102" rx="3.5" ry="10" transform="rotate(-90 109 102)" fill="#3873E9"/>
<ellipse cx="6.00002" cy="36" rx="2.1" ry="6" fill="#3873E9"/>
<ellipse cx="6" cy="36" rx="2.1" ry="6" transform="rotate(-90 6 36)" fill="#3873E9"/>
<ellipse cx="17" cy="15" rx="5.25" ry="15" fill="#3873E9"/>
<ellipse cx="17" cy="15" rx="5.25" ry="15" transform="rotate(-90 17 15)" fill="#3873E9"/>
<circle cx="62.5" cy="60.5" r="45.5" fill="#3873E9"/>
<path d="M63.1065 74.3977C61.2315 74.3977 59.5601 74.0758 58.0923 73.4318C56.634 72.7879 55.474 71.893 54.6122 70.7472C53.7599 69.5919 53.2959 68.2519 53.2202 66.7273H56.7997C56.8755 67.6648 57.1974 68.4744 57.7656 69.1562C58.3338 69.8286 59.0772 70.3494 59.9957 70.7188C60.9143 71.0881 61.9323 71.2727 63.0497 71.2727C64.2997 71.2727 65.4077 71.0549 66.3736 70.6193C67.3395 70.1837 68.0971 69.5777 68.6463 68.8011C69.1955 68.0246 69.4702 67.125 69.4702 66.1023C69.4702 65.0322 69.205 64.09 68.6747 63.2756C68.1444 62.4517 67.3679 61.8078 66.3452 61.3438C65.3224 60.8797 64.0724 60.6477 62.5952 60.6477H60.2656V57.5227H62.5952C63.7505 57.5227 64.7637 57.3144 65.6349 56.8977C66.5156 56.4811 67.2022 55.8939 67.6946 55.1364C68.1965 54.3788 68.4474 53.4886 68.4474 52.4659C68.4474 51.4811 68.2296 50.6241 67.794 49.8949C67.3584 49.1657 66.7429 48.5975 65.9474 48.1903C65.1615 47.7831 64.2334 47.5795 63.1634 47.5795C62.1596 47.5795 61.2126 47.7642 60.3224 48.1335C59.4418 48.4934 58.7221 49.0189 58.1634 49.7102C57.6046 50.392 57.3016 51.2159 57.2543 52.1818H53.8452C53.902 50.6572 54.3613 49.322 55.223 48.1761C56.0848 47.0208 57.2116 46.1212 58.6037 45.4773C60.0052 44.8333 61.544 44.5114 63.2202 44.5114C65.0194 44.5114 66.563 44.8759 67.8509 45.6051C69.1387 46.3248 70.1283 47.2765 70.8196 48.4602C71.5109 49.6439 71.8565 50.9223 71.8565 52.2955C71.8565 53.9337 71.4257 55.3305 70.5639 56.4858C69.7116 57.6411 68.5516 58.4413 67.0838 58.8864V59.1136C68.9209 59.4167 70.3556 60.1979 71.3878 61.4574C72.42 62.7074 72.9361 64.2557 72.9361 66.1023C72.9361 67.6837 72.5052 69.1042 71.6435 70.3636C70.7912 71.6136 69.6264 72.5985 68.1491 73.3182C66.6719 74.0379 64.991 74.3977 63.1065 74.3977Z" fill="white"/>
</svg>
