<svg width="91" height="91" viewBox="0 0 91 91" fill="none" xmlns="http://www.w3.org/2000/svg">
<circle cx="45.5" cy="45.5" r="45.5" fill="#3873E9"/>
<path d="M45.1065 60.3977C43.2315 60.3977 41.5601 60.0758 40.0923 59.4318C38.634 58.7879 37.474 57.893 36.6122 56.7472C35.7599 55.5919 35.2959 54.2519 35.2202 52.7273H38.7997C38.8755 53.6648 39.1974 54.4744 39.7656 55.1562C40.3338 55.8286 41.0772 56.3494 41.9957 56.7188C42.9143 57.0881 43.9323 57.2727 45.0497 57.2727C46.2997 57.2727 47.4077 57.0549 48.3736 56.6193C49.3395 56.1837 50.0971 55.5777 50.6463 54.8011C51.1955 54.0246 51.4702 53.125 51.4702 52.1023C51.4702 51.0322 51.205 50.09 50.6747 49.2756C50.1444 48.4517 49.3679 47.8078 48.3452 47.3438C47.3224 46.8797 46.0724 46.6477 44.5952 46.6477H42.2656V43.5227H44.5952C45.7505 43.5227 46.7637 43.3144 47.6349 42.8977C48.5156 42.4811 49.2022 41.8939 49.6946 41.1364C50.1965 40.3788 50.4474 39.4886 50.4474 38.4659C50.4474 37.4811 50.2296 36.6241 49.794 35.8949C49.3584 35.1657 48.7429 34.5975 47.9474 34.1903C47.1615 33.7831 46.2334 33.5795 45.1634 33.5795C44.1596 33.5795 43.2126 33.7642 42.3224 34.1335C41.4418 34.4934 40.7221 35.0189 40.1634 35.7102C39.6046 36.392 39.3016 37.2159 39.2543 38.1818H35.8452C35.902 36.6572 36.3613 35.322 37.223 34.1761C38.0848 33.0208 39.2116 32.1212 40.6037 31.4773C42.0052 30.8333 43.544 30.5114 45.2202 30.5114C47.0194 30.5114 48.563 30.8759 49.8509 31.6051C51.1387 32.3248 52.1283 33.2765 52.8196 34.4602C53.5109 35.6439 53.8565 36.9223 53.8565 38.2955C53.8565 39.9337 53.4257 41.3305 52.5639 42.4858C51.7116 43.6411 50.5516 44.4413 49.0838 44.8864V45.1136C50.9209 45.4167 52.3556 46.1979 53.3878 47.4574C54.42 48.7074 54.9361 50.2557 54.9361 52.1023C54.9361 53.6837 54.5052 55.1042 53.6435 56.3636C52.7912 57.6136 51.6264 58.5985 50.1491 59.3182C48.6719 60.0379 46.991 60.3977 45.1065 60.3977Z" fill="white"/>
</svg>
