<svg width="91" height="91" viewBox="0 0 91 91" fill="none" xmlns="http://www.w3.org/2000/svg">
<circle cx="45.5" cy="45.5" r="45.5" fill="#3873E9"/>
<path d="M36.402 60V57.4432L46.0043 46.9318C47.1312 45.7008 48.0592 44.6307 48.7884 43.7216C49.5175 42.803 50.0573 41.9413 50.4077 41.1364C50.7675 40.322 50.9474 39.4697 50.9474 38.5795C50.9474 37.5568 50.7012 36.6714 50.2088 35.9233C49.7259 35.1752 49.063 34.5975 48.2202 34.1903C47.3774 33.7831 46.4304 33.5795 45.3793 33.5795C44.2618 33.5795 43.2865 33.8116 42.4531 34.2756C41.6293 34.7301 40.9901 35.3693 40.5355 36.1932C40.0904 37.017 39.8679 37.983 39.8679 39.0909H36.5156C36.5156 37.3864 36.9086 35.8902 37.6946 34.6023C38.4806 33.3144 39.5507 32.3106 40.9048 31.5909C42.2685 30.8712 43.7978 30.5114 45.4929 30.5114C47.1974 30.5114 48.7079 30.8712 50.0241 31.5909C51.3404 32.3106 52.3726 33.2812 53.1207 34.5028C53.8688 35.7244 54.2429 37.0833 54.2429 38.5795C54.2429 39.6496 54.0488 40.696 53.6605 41.7188C53.2817 42.732 52.6188 43.8636 51.6719 45.1136C50.7344 46.3542 49.4323 47.8693 47.7656 49.6591L41.2315 56.6477V56.875H54.7543V60H36.402Z" fill="white"/>
</svg>
