<?xml version="1.0" encoding="UTF-8" standalone="no"?>
<!-- Created with Inkscape (http://www.inkscape.org/) -->

<svg
   width="150"
   height="150"
   viewBox="0 0 39.687499 39.6875"
   version="1.1"
   id="svg1"
   inkscape:version="1.3.2 (091e20e, 2023-11-25, custom)"
   sodipodi:docname="logo_tint_white.svg"
   xml:space="preserve"
   xmlns:inkscape="http://www.inkscape.org/namespaces/inkscape"
   xmlns:sodipodi="http://sodipodi.sourceforge.net/DTD/sodipodi-0.dtd"
   xmlns="http://www.w3.org/2000/svg"
   xmlns:svg="http://www.w3.org/2000/svg"><sodipodi:namedview
     id="namedview1"
     pagecolor="#ffffff"
     bordercolor="#000000"
     borderopacity="0.25"
     inkscape:showpageshadow="2"
     inkscape:pageopacity="0.0"
     inkscape:pagecheckerboard="0"
     inkscape:deskcolor="#d1d1d1"
     inkscape:document-units="mm"
     inkscape:zoom="4.2179991"
     inkscape:cx="70.531072"
     inkscape:cy="69.819835"
     inkscape:window-width="1920"
     inkscape:window-height="1051"
     inkscape:window-x="-9"
     inkscape:window-y="-9"
     inkscape:window-maximized="1"
     inkscape:current-layer="layer1" /><defs
     id="defs1"><linearGradient
       id="swatch8"
       inkscape:swatch="solid"><stop
         style="stop-color:#3872e8;stop-opacity:1;"
         offset="0"
         id="stop8" /></linearGradient><linearGradient
       id="swatch2"
       inkscape:swatch="solid"><stop
         style="stop-color:#000000;stop-opacity:0;"
         offset="0"
         id="stop2" /></linearGradient></defs><g
     inkscape:label="Слой 1"
     inkscape:groupmode="layer"
     id="layer1"
     style="display:inline;opacity:1"><circle
       id="path1"
       style="fill:#ffffff;stroke:#000000;stroke-width:0.264583"
       cx="-61.22176"
       cy="76.778107"
       r="0.033420816" /><a
       id="a1" /><g
       id="g1"
       transform="matrix(1.2264477,0,0,1.2264477,-2.089914,-6.4050953)"><circle
         style="fill:#ffffff;fill-opacity:1;stroke:#0000ff;stroke-width:0;stroke-dasharray:none"
         id="path8"
         cx="13.419297"
         cy="26.203962"
         r="9.0062609" /><ellipse
         style="fill:#ffffff;fill-opacity:1;stroke:#0000ff;stroke-width:0;stroke-dasharray:none"
         id="path9"
         cx="15.211347"
         cy="22.9853"
         rx="3.0422697"
         ry="3.100775" /><circle
         style="fill:#ffffff;fill-opacity:1;stroke:#0000ff;stroke-width:0;stroke-dasharray:none"
         id="path10"
         cx="18.598618"
         cy="28.070429"
         r="1.4113624" /><a
         id="a1-8"
         transform="matrix(0.55970151,0,0,0.55970151,15.613136,14.7958)"
         style="fill:#ffffff"><ellipse
           style="fill:#ffffff;fill-opacity:1;stroke:#0000ff;stroke-width:0;stroke-dasharray:none"
           id="path11-2"
           cx="-19.147228"
           cy="19.513933"
           rx="4.2027235"
           ry="1.1604534"
           transform="rotate(-90)" /><ellipse
           style="fill:#ffffff;fill-opacity:1;stroke:#0000ff;stroke-width:0;stroke-dasharray:none"
           id="path11-2-2"
           cx="19.500257"
           cy="19.132677"
           rx="4.2027235"
           ry="1.1604534" /></a><a
         id="a1-4"
         transform="matrix(0.84701493,0,0,0.84701493,-1.342922,-4.871515)"
         style="fill:#ffffff"><ellipse
           style="fill:#ffffff;fill-opacity:1;stroke:#0000ff;stroke-width:0;stroke-dasharray:none"
           id="path11-2-24"
           cx="-19.147228"
           cy="19.513933"
           rx="4.2027235"
           ry="1.1604534"
           transform="rotate(-90)" /><ellipse
           style="fill:#ffffff;fill-opacity:1;stroke:#0000ff;stroke-width:0;stroke-dasharray:none"
           id="path11-2-2-7"
           cx="19.500257"
           cy="19.132677"
           rx="4.2027235"
           ry="1.1604534" /></a><ellipse
         style="display:inline;opacity:1;fill:#ffffff;fill-opacity:1;stroke:#0000ff;stroke-width:0;stroke-dasharray:none"
         id="path8-4"
         cx="26.523455"
         cy="14.987926"
         rx="4.8660874"
         ry="4.8662648"
         inkscape:highlight-color="#3b80ee" /><ellipse
         style="display:inline;opacity:1;fill:#ffffff;fill-opacity:1;stroke:#0000ff;stroke-width:0;stroke-dasharray:none"
         id="path9-2"
         cx="27.923462"
         cy="12.947511"
         rx="1.5211346"
         ry="1.5503875" /><path
         style="fill:#3872e8;fill-opacity:1;stroke:#0000ff;stroke-width:0"
         d="M 54.963353,98.169148 C 48.845556,96.68545 44.920172,90.204053 46.475037,84.153669 c 0.559813,-2.17838 1.517298,-3.872971 3.074523,-5.441404 4.565676,-4.598533 11.318633,-4.598533 15.884309,0 2.885168,2.905932 4.069555,7.074078 3.084616,10.855513 -1.624137,6.235486 -7.620712,10.040596 -13.555132,8.60137 z"
         id="path2"
         transform="scale(0.26458333)" /><path
         style="fill:#3872e8;fill-opacity:1;stroke:#0000ff;stroke-width:0"
         d="m 68.27882,110.86327 c -3.410873,-1.56467 -4.236339,-5.81758 -1.634216,-8.4197 2.602122,-2.602125 6.855032,-1.77666 8.419698,1.63421 1.880446,4.09926 -2.686231,8.66593 -6.785482,6.78549 z"
         id="path3"
         transform="scale(0.26458333)" /><path
         style="fill:#3872e8;fill-opacity:1;stroke:#0000ff;stroke-width:0"
         d="m 103.34739,54.209921 c -5.318889,-2.487021 -4.005955,-10.477292 1.79048,-10.896568 1.70725,-0.123491 2.74229,0.204222 3.97347,1.258063 2.11619,1.811378 2.59681,4.979433 1.11824,7.370965 -1.43645,2.323399 -4.56102,3.35288 -6.88219,2.26754 z"
         id="path4"
         transform="scale(0.26458333)" /></g></g></svg>
